<?xml version="1.0" encoding="UTF-8"?>
<svg id="Layer_1" data-name="Layer 1" xmlns="http://www.w3.org/2000/svg" xmlns:xlink="http://www.w3.org/1999/xlink" viewBox="-6.0 152.5 512.0 195.0">
  <defs>
    <style>
      .cls-1 {
        fill: url(#linear-gradient-8);
      }

      .cls-2 {
        fill: url(#linear-gradient-7);
      }

      .cls-3 {
        fill: url(#linear-gradient-5);
      }

      .cls-4 {
        fill: url(#linear-gradient-6);
      }

      .cls-5 {
        fill: url(#linear-gradient-9);
      }

      .cls-6 {
        fill: url(#linear-gradient-4);
      }

      .cls-7 {
        fill: url(#linear-gradient-3);
      }

      .cls-8 {
        fill: url(#linear-gradient-2);
      }

      .cls-9 {
        fill: url(#linear-gradient);
      }

      .cls-10 {
        fill: url(#linear-gradient-10);
      }

      .cls-11 {
        fill: url(#linear-gradient-11);
      }

      .cls-12 {
        fill: url(#linear-gradient-12);
      }

      .cls-13 {
        fill: url(#linear-gradient-13);
      }

      .cls-14 {
        fill: url(#linear-gradient-19);
      }

      .cls-15 {
        fill: url(#linear-gradient-14);
      }

      .cls-16 {
        fill: url(#linear-gradient-21);
      }

      .cls-17 {
        fill: url(#linear-gradient-20);
      }

      .cls-18 {
        fill: url(#linear-gradient-22);
      }

      .cls-19 {
        fill: url(#linear-gradient-15);
      }

      .cls-20 {
        fill: url(#linear-gradient-16);
      }

      .cls-21 {
        fill: url(#linear-gradient-17);
      }

      .cls-22 {
        fill: url(#linear-gradient-18);
      }
    </style>
    <linearGradient id="linear-gradient" x1="32.64" y1="176.93" x2="32.64" y2="219.21" gradientUnits="userSpaceOnUse">
      <stop offset="0" stop-color="#0587cc"/>
      <stop offset="1" stop-color="#012f6e"/>
    </linearGradient>
    <linearGradient id="linear-gradient-2" x1="87.49" y1="176.93" x2="87.49" y2="219.21" xlink:href="#linear-gradient"/>
    <linearGradient id="linear-gradient-3" x1="229.67" y1="176.93" x2="229.67" y2="219.21" xlink:href="#linear-gradient"/>
    <linearGradient id="linear-gradient-4" x1="120.6" y1="176.93" x2="120.6" y2="219.21" xlink:href="#linear-gradient"/>
    <linearGradient id="linear-gradient-5" x1="262.89" y1="176.93" x2="262.89" y2="219.21" xlink:href="#linear-gradient"/>
    <linearGradient id="linear-gradient-6" x1="303.17" y1="176.93" x2="303.17" y2="219.21" xlink:href="#linear-gradient"/>
    <linearGradient id="linear-gradient-7" x1="353.27" y1="176.93" x2="353.27" y2="219.21" xlink:href="#linear-gradient"/>
    <linearGradient id="linear-gradient-8" x1="169.91" y1="176.93" x2="169.91" y2="219.21" xlink:href="#linear-gradient"/>
    <linearGradient id="linear-gradient-9" x1="292.16" y1="176.93" x2="292.16" y2="219.21" xlink:href="#linear-gradient"/>
    <linearGradient id="linear-gradient-10" x1="158.46" y1="262.9" x2="158.46" y2="297.06" xlink:href="#linear-gradient"/>
    <linearGradient id="linear-gradient-11" x1="34.25" y1="262.9" x2="34.25" y2="297.06" xlink:href="#linear-gradient"/>
    <linearGradient id="linear-gradient-12" x1="103.9" y1="262.9" x2="103.9" y2="297.06" xlink:href="#linear-gradient"/>
    <linearGradient id="linear-gradient-13" x1="206.04" y1="262.9" x2="206.04" y2="297.06" xlink:href="#linear-gradient"/>
    <linearGradient id="linear-gradient-14" x1="297.92" y1="277.87" x2="297.92" y2="303.69" gradientUnits="userSpaceOnUse">
      <stop offset="0" stop-color="#fbe841"/>
      <stop offset="1" stop-color="#b78f00"/>
    </linearGradient>
    <linearGradient id="linear-gradient-15" x1="381.84" y1="277.87" x2="381.84" y2="303.69" xlink:href="#linear-gradient-14"/>
    <linearGradient id="linear-gradient-16" x1="440.24" y1="252.65" x2="449.02" y2="260.05" xlink:href="#linear-gradient-14"/>
    <linearGradient id="linear-gradient-17" x1="449.81" y1="296.93" x2="433.67" y2="274.47" xlink:href="#linear-gradient-14"/>
    <linearGradient id="linear-gradient-18" x1="427.11" y1="218.84" x2="429.01" y2="218.84" xlink:href="#linear-gradient-14"/>
    <linearGradient id="linear-gradient-19" x1="427.84" y1="322.34" x2="429.74" y2="322.34" xlink:href="#linear-gradient-14"/>
    <linearGradient id="linear-gradient-20" x1="472.15" y1="272.77" x2="487.52" y2="272.77" gradientTransform="translate(752.6 -207.07) rotate(90)" xlink:href="#linear-gradient-14"/>
    <linearGradient id="linear-gradient-21" x1="461.41" y1="312.61" x2="473.27" y2="312.61" gradientTransform="translate(337.82 -234.52) rotate(42.9)" xlink:href="#linear-gradient-14"/>
    <linearGradient id="linear-gradient-22" x1="463.21" y1="255.82" x2="377.23" y2="296.1" gradientUnits="userSpaceOnUse">
      <stop offset=".02" stop-color="#012f6e"/>
      <stop offset=".09" stop-color="#024889"/>
      <stop offset=".19" stop-color="#036aad"/>
      <stop offset=".28" stop-color="#047fc3"/>
      <stop offset=".33" stop-color="#0587cc"/>
      <stop offset="1" stop-color="#012f6e"/>
    </linearGradient>
  </defs>
  <path class="cls-9" d="M27.17,160.21c10.35,0,18.33,1.27,23.95,5.12,5.61,3.85,9.64,10.23,9.64,19.13,0,17.97-12.81,25.87-35.99,25.87h-3.92v14.81c0,6.82-.34,11.83.79,15.04H5.03c1.12-3.21,1.04-8.22,1.04-15.04v-50.66c0-6.74-.43-11.05-1.55-14.26h22.65ZM24.53,200.7c14.36,0,22.72-5,22.72-15.99s-8.04-15.66-21.76-15.66h-4.64v31.64h3.67Z"/>
  <path class="cls-8" d="M101.93,182.28c1.28,0,2.93.08,3.73.24v12.86c-10.74-4.26-21.9,2.91-21.9,17.08v13.99c0,5.78.6,10.35,1.8,13.72h-16.24c1.2-3.37,1.25-7.94,1.25-13.72v-28.16c0-5.61-.05-11.99-1.25-15.52h14.25l-.05,11.55c1.76-2.73,7.62-12.04,18.41-12.04Z"/>
  <path class="cls-7" d="M244.1,182.28c1.28,0,2.93.08,3.73.24v12.86c-10.74-4.26-21.9,2.91-21.9,17.08v13.99c0,5.78.6,10.35,1.8,13.72h-16.24c1.2-3.37,1.25-7.94,1.25-13.72v-28.16c0-5.61-.05-11.99-1.25-15.52h14.25l-.05,11.55c1.76-2.73,7.62-12.04,18.41-12.04Z"/>
  <path class="cls-6" d="M126.23,173.12c-1.52,1.56-3.49,2.35-5.9,2.35s-4.37-.78-5.9-2.35c-1.52-1.56-2.29-3.59-2.29-6.08s.76-4.41,2.29-6.02c1.52-1.6,3.49-2.41,5.9-2.41s4.37.8,5.9,2.41c1.52,1.61,2.29,3.61,2.29,6.02s-.76,4.51-2.29,6.08ZM112.82,240.17c1.2-3.37,1.6-8.14,1.6-13.92v-28.16c0-5.61-.4-12.28-1.6-15.81h14.44v44.17c0,5.78.6,10.35,1.8,13.72h-16.24Z"/>
  <path class="cls-3" d="M268.51,173.12c-1.52,1.56-3.49,2.35-5.9,2.35s-4.37-.78-5.9-2.35c-1.52-1.56-2.29-3.59-2.29-6.08s.76-4.41,2.29-6.02c1.52-1.6,3.49-2.41,5.9-2.41s4.37.8,5.9,2.41c1.52,1.61,2.29,3.61,2.29,6.02s-.76,4.51-2.29,6.08ZM255.1,240.17c1.2-3.37,1.6-8.14,1.6-13.92v-28.16c0-5.61-.4-12.28-1.6-15.81h14.44v44.17c0,5.78.6,10.35,1.8,13.72h-16.24Z"/>
  <path class="cls-4" d="M300.96,222.13v-29.46h16.49l-.02-9.21h-16.47v-16.02l-12.63,4.39v50.18c0,13.26,6.33,19.89,19.01,19.89,4.01,0,7.57-.56,10.67-1.69v-10.1c-10.19,6.52-17.05-1.27-17.05-7.98Z"/>
  <path class="cls-2" d="M369.78,183.46h12.97l-24.37,59.92c-2.57,7.22-9.4,23.21-30.04,18.06l-.02-7.16c6.63-.22,13.52.12,16.85-7.09,1.86-4.03,1.78-8.7.06-12.79l-21.43-50.95h14.94l16.52,41.23,14.52-41.23Z"/>
  <path class="cls-1" d="M169.92,181.32c-17.59,0-31.86,13.72-31.86,30.64s14.27,30.65,31.86,30.65,31.85-13.72,31.85-30.65-14.27-30.64-31.85-30.64ZM169.92,232.43c-10.25,0-18.57-9.16-18.57-20.48s8.31-20.47,18.57-20.47,18.56,9.16,18.56,20.47-8.31,20.48-18.56,20.48Z"/>
  <rect class="cls-5" x="279.16" y="183.46" width="26.01" height="9.21"/>
  <g>
    <path class="cls-10" d="M172.9,275.01c1.28,0,2.93.08,3.73.24v12.86c-10.74-4.26-21.9,2.91-21.9,17.08v13.99c0,5.78.6,10.35,1.8,13.72h-16.24c1.2-3.37,1.25-7.94,1.25-13.72v-28.16c0-5.61-.05-11.99-1.25-15.52h14.25l-.05,11.55c1.76-2.73,7.62-12.04,18.41-12.04Z"/>
    <path class="cls-11" d="M16.77,293.98c0,16.79,11.83,29.97,29.92,29.97,8.75,0,15.53-2.49,20.42-6.67v11.34c-6.4,3.6-14.5,5.66-24.33,5.66-25.86,0-42.77-17.71-42.77-40.22s20.27-40.79,42.77-40.79c11.18,0,19.53,1.71,25.72,4.74v13.33c-4.89-4.82-12.19-7.75-22.41-7.75-15.74,0-29.32,13.6-29.32,30.4Z"/>
    <path class="cls-12" d="M129.74,332.69l-14.63.05-.04-5.34-.57.02c-4.36,4.57-9.39,6.69-16.45,6.69-15.75,0-19.99-11.39-19.99-16.61,0-24.39,33.66-18.45,36.23-17.89v-1.24c0-8.58-3.77-12.87-11.31-12.87-12.74,0-19.13,6.45-19.13,6.45l-.13-9.88c5.94-3.21,15.25-6.21,22.15-6.21,14.04,0,22.88,8.66,22.88,22.86v20.46c0,5.78-.21,10.14.99,13.51ZM102.26,324.71c4.81,0,8.82-1.68,12.03-5.05v-13.43c-2.57-.8-12.57-1.89-18.53,2.3-2.41,1.89-3.61,4.35-3.61,7.4,0,2.65.9,4.77,2.71,6.38,1.81,1.61,4.27,2.41,7.4,2.41Z"/>
    <path class="cls-13" d="M233.74,301.31c0-7.78-2.29-14.14-6.86-19.07-4.58-4.93-10.87-7.4-18.87-7.4-8.75,0-15.88,2.83-21.39,8.48-5.51,5.65-8.27,13.01-8.27,22.08,0,8.59,2.68,15.34,8.03,20.27,5.35,4.93,12.68,8.16,21.99,8.16,7.86,0,14.6-1.56,20.24-4.67v-10.51c-5.61,4.16-11.42,5.56-17.42,5.56-5.07,0-18.33-1.75-18.33-18.01h40.39c.32-1.61.49-2.42.49-4.9ZM193.16,298.22c0-18.43,27.22-18.43,27.22,0h-27.22Z"/>
    <path class="cls-15" d="M338.9,268.96v52.37c0,5.84.09,8.82,1.2,11.57h-16.13,0c1.09-1.96,1.65-4.18,1.61-6.43l-.86-46.59-26.53,53.02h-3.87s-24.72-52.46-25.35-53.63c.24,2.48.36,5.05.36,7.74v33c0,5.84.56,10.14,1.67,12.89h-15.27l.33-.71c.89-1.91,1.34-3.99,1.34-6.1v-52.32c0-5.78-.56-7.23-1.67-9.99h20.65l22.46,45.96,23.36-45.96h17.73c-.64,1.04-1.03,2.46-1.03,5.17Z"/>
    <path class="cls-19" d="M373.59,263.85c-1.06-.04-2.15-.06-3.28-.06h-21.17c1.04,2.75,1.56,7.02,1.56,12.79v43.42c0,5.84-.52,10.14-1.56,12.89h20.47c8.54,0,15.91-.79,22.03-2.72,4.1-1.29,7.62-3.08,10.6-5.49.67-.54,1.29-1.07,1.89-1.62,7.96-7.19,10.42-14.95,10.42-25.75s-8.54-32.11-40.95-33.46ZM381.42,322.16c-3.18.86-6.87,1.32-11.12,1.32h-6.2v-49.05h3.69c1.82,0,3.55.08,5.19.23,18.62,1.71,25.48,12.76,25.48,24.51,0,6.25-1.65,12.06-5.63,16.43-2.68,2.93-6.41,5.23-11.41,6.55Z"/>
  </g>
  <path class="cls-20" d="M464.19,232.1c-7.04,5.2-19.96,18.02-31.78,30-1.52-1.02-3.33-1.62-5.3-1.62-5.28,0-9.56,4.28-9.56,9.56s4.28,9.56,9.56,9.56c1.8,0,3.49-.5,4.92-1.38,1.37-.82,2.51-1.97,3.31-3.36.84-1.42,1.31-3.06,1.31-4.82,0-1.39-.31-2.71-.85-3.91,11.4-12.68,23.92-26.69,28.7-33.72.14-.21-.12-.46-.32-.31Z"/>
  <path class="cls-21" d="M455.41,299.42c-5.6-3.63-14.72-12.46-23.37-21.2,1.37-.82,2.51-1.97,3.31-3.36,7.28,7.9,14.39,15.72,20.35,24.26.13.19-.09.42-.28.3Z"/>
  <rect class="cls-22" x="427.11" y="213.59" width="1.9" height="10.5"/>
  <rect class="cls-14" x="427.84" y="317.09" width="1.9" height="10.5"/>
  <rect class="cls-17" x="478.89" y="265.08" width="1.9" height="15.37" transform="translate(207.07 752.6) rotate(-90)"/>
  <rect class="cls-16" x="466.39" y="304.92" width="1.9" height="15.37" transform="translate(-87.8 401.77) rotate(-42.9)"/>
  <path class="cls-18" d="M500,271.49c0,38.6-31.44,69.89-70.22,69.89-14.07,0-27.16-4.12-38.14-11.2,4.1-1.29,7.62-3.08,10.6-5.49.67-.54,1.29-1.07,1.89-1.62,7.46,3.72,15.88,5.81,24.76,5.81,30.91,0,55.96-25.24,55.96-56.37s-25.05-56.36-55.96-56.36c-26.14,0-48.1,18.06-54.25,42.47h-13.89c6.07-32.46,34.66-57.03,69.03-57.03,38.78,0,70.22,31.3,70.22,69.9Z"/>
</svg>